# xmcd
#
# Track frame offsets:
#	150
#	21581
#	34413
#	57278
#	89455
#	119077
#	152635
#
# Disc length: 2345 seconds
#
# Revision: 1
# Processed by: cddbd v1.5.2PL0 Copyright (c) Steve Scherf et al.
# Submitted via: audiograbber 1.83.01
#
DISCID=60092707
DTITLE=NRPS - 71-12-05 Felt Forum, Madison Square Garden, New York NY
DYEAR=1900
DGENRE=
TTITLE0=Henry
TTITLE1=California Day
TTITLE2=Louisiana Lady
TTITLE3=Last Lonely Eagle
TTITLE4=Willy and The Hand Jive
TTITLE5=Honky Tonk Woman
TTITLE6=Glendale Train
EXTD=
EXTT0=
EXTT1=
EXTT2=
EXTT3=
EXTT4=
EXTT5=
EXTT6=
PLAYORDER=
